o name
v 0 6 0
v 0 0 0
v 0 0 -7
v 0 6 -7
v 18 9 0
v 18 9 -7.5
v 18 0 -7.5
v 18 0 0
v 5 6 0
v 0 6 0
v 0 6 -7
v 5 6 -8
v 8 9 0
v 5 6 0
v 5 6 -8
v 8 9.001 -8
v 18 9 0
v 8 9.001 0
v 8 9.001 -8
v 18 9 -7.5
v 5 6 0
v 8 9.001 0
v 18 9 0
v 18 6 0
v 0 0 0
v 0 6 0
v 18 6 0
v 18 0 0
vt 0.36363636363636365 0.5686274509803921
vt 0 0.37254901960784315
vt 0.36363636363636365 0.37254901960784315
vt 0.36363636363636365 0.5686274509803921
vt 0 0.5686274509803921
vt 0 0.37254901960784315
vt 0.2909090909090909 0.39215686274509803
vt 0 -0.039215686274509734
vt 0.2909090909090909 -0.039215686274509734
vt 0.2909090909090909 0.39215686274509803
vt 0 0.39215686274509803
vt 0 -0.039215686274509734
vt 0.36363636363636365 0.803921568627451
vt 0 0.5686274509803921
vt 0.36363636363636365 0.5686274509803921
vt 0.36363636363636365 0.803921568627451
vt 0 0.803921568627451
vt 0 0.5686274509803921
vt 0.36363636363636365 0.9215686274509804
vt 0 0.7647058823529411
vt 0.36363636363636365 0.7647058823529411
vt 0.36363636363636365 0.9215686274509804
vt 0 0.9215686274509804
vt 0 0.7647058823529411
vt 1.018181818181818 0.6666666666666666
vt 0.6909090909090909 1
vt 0.6909090909090909 0.6862745098039216
vt 1.018181818181818 0.6666666666666666
vt 1.018181818181818 0.9803921568627451
vt 0.6909090909090909 1
vt 0.5454545454545454 0.5686274509803921
vt 1.018181818181818 0.6666666666666666
vt 0.5454545454545454 0.6862745098039216
vt 0.5454545454545454 0.5686274509803921
vt 1.018181818181818 0.5686274509803921
vt 1.018181818181818 0.6666666666666666
vt 0.36363636363636365 0.33333333333333337
vt 1.018181818181818 0.5686274509803921
vt 0.36363636363636365 0.5686274509803921
vt 0.36363636363636365 0.33333333333333337
vt 1.018181818181818 0.3137254901960785
vt 1.018181818181818 0.5686274509803921
vn -0.9999999999999493 2.3136314776654884e-7 -2.1917175217986565e-7
vn -0.9999999999999493 2.3136314776654884e-7 -2.1917175217986565e-7
vn -0.9999999999999493 2.3136314776654879e-7 -2.1917175217986562e-7
vn -0.9999999999999493 2.3136314776654884e-7 -2.1917175217986565e-7
vn -0.9999999999999493 2.3136314776654887e-7 -2.1917175217986567e-7
vn -0.9999999999999493 2.3136314776654884e-7 -2.1917175217986565e-7
vn 0.9999999999999257 -2.272572515878947e-8 3.851370794664252e-7
vn 0.9999999999999257 -2.272572515878947e-8 3.851370794664252e-7
vn 0.9999999999999257 -2.2725725158789468e-8 3.851370794664252e-7
vn 0.9999999999999257 -2.272572515878947e-8 3.851370794664252e-7
vn 0.9999999999999257 -2.2725725158789474e-8 3.851370794664252e-7
vn 0.9999999999999257 -2.272572515878947e-8 3.851370794664252e-7
vn 0.0000056151654457736654 0.9999999999793661 0.000003120554993548717
vn 0.0000056151654457736654 0.9999999999793661 0.000003120554993548717
vn 0.000009983641938312636 0.9999999999501634 2.1464176467726618e-10
vn 0.0000056151654457736654 0.9999999999793661 0.000003120554993548717
vn 0.0000012466889530728655 0.9999999999797485 0.0000062408953452428225
vn 0.0000056151654457736654 0.9999999999793661 0.000003120554993548717
vn -0.7071539671583537 0.7070595909490003 0.00003973958193811448
vn -0.7071539671583537 0.7070595909490003 0.00003973958193811448
vn -0.7071009905271517 0.7071125717985227 5.8543974569262355e-9
vn -0.7071539671583537 0.7070595909490003 0.00003973958193811448
vn -0.7072069387035186 0.7070066050141194 0.00007947330919295451
vn -0.7071539671583537 0.7070595909490003 0.00003973958193811448
vn 0.00008504042071380182 0.999999996384062 -5.7031478841564545e-8
vn 0.00008504042071380182 0.999999996384062 -5.7031478841564545e-8
vn 0.00008504526266851107 0.9999999963836498 -6.308392229461102e-8
vn 0.00008504042071380182 0.999999996384062 -5.7031478841564545e-8
vn 0.00008503557875909256 0.999999996384474 -5.0979035388518056e-8
vn 0.00008504042071380182 0.999999996384062 -5.7031478841564545e-8
vn 0 0 1
vn 0 0 1
vn 0 0 1
vn 0 0 1
vn 0 0 1
vn 0 0 1
vn 2.912694571241107e-8 -8.73808371372332e-8 0.9999999999999958
vn 2.912694571241107e-8 -8.73808371372332e-8 0.9999999999999958
vn 0 0 1
vn 2.912694571241107e-8 -8.73808371372332e-8 0.9999999999999958
vn 5.825389142482189e-8 -1.7476167427446567e-7 0.999999999999983
vn 2.912694571241107e-8 -8.73808371372332e-8 0.9999999999999958
f 1/1/1 3/2/2 2/3/3
f 1/4/4 4/5/5 3/6/6
f 5/7/7 7/8/8 6/9/9
f 5/10/10 8/11/11 7/12/12
f 9/13/13 11/14/14 10/15/15
f 9/16/16 12/17/17 11/18/18
f 13/19/19 15/20/20 14/21/21
f 13/22/22 16/23/23 15/24/24
f 17/25/25 19/26/26 18/27/27
f 17/28/28 20/29/29 19/30/30
f 21/31/31 23/32/32 22/33/33
f 21/34/34 24/35/35 23/36/36
f 25/37/37 27/38/38 26/39/39
f 25/40/40 28/41/41 27/42/42
